<?xml version="1.0" standalone="no"?><!DOCTYPE svg PUBLIC "-//W3C//DTD SVG 1.1//EN" "http://www.w3.org/Graphics/SVG/1.1/DTD/svg11.dtd"><svg t="1617119575779" class="icon" viewBox="0 0 1024 1024" version="1.1" xmlns="http://www.w3.org/2000/svg" p-id="2293" xmlns:xlink="http://www.w3.org/1999/xlink" width="200" height="200"><defs><style type="text/css"></style></defs><path d="M802.56 658.72384c-2.98496-2.98496-6.0928-5.85216-9.16992-8.74496-0.73216-0.86528-1.40288-1.76128-2.2528-2.54464a408.68864 408.68864 0 0 0-82.44224-58.88512l-0.34304-0.18432a407.552 407.552 0 0 0-16.31744-8.36096c-0.9216-0.44544-1.85344-0.88064-2.77504-1.32096a406.56384 406.56384 0 0 0-14.27456-6.45632c-1.65376-0.71168-3.31776-1.39264-4.98176-2.08384-2.34496-0.96768-4.65408-2.01216-7.02464-2.93888-1.91488-0.75264-3.88096-1.40288-5.8112-2.1248-1.8944-0.71168-3.7888-1.40288-5.69856-2.08384-1.69472-0.60416-3.36384-1.26976-5.0688-1.85344a291.80928 291.80928 0 0 0 64.45568-48.52736c52.64896-52.64384 85.16096-125.32224 85.16096-205.59872 0-80.27648-32.512-152.94976-85.16096-205.59872C658.26304 48.83968 585.58976 16.27648 505.31328 16.27648c-80.3328 0-153.00608 32.5632-205.59872 85.16096-52.64896 52.64384-85.16096 125.31712-85.16096 205.59872s32.50688 152.95488 85.15584 205.59872c21.00224 21.00736 45.33248 38.6304 71.9616 52.44416a0.07168 0.07168 0 0 1-0.03072 0.01024c-1.93024 0.72192-3.89632 1.37216-5.8112 2.1248-2.36544 0.92672-4.67456 1.96608-7.01952 2.93376-1.66912 0.6912-3.33824 1.37728-4.992 2.08896-4.80256 2.05824-9.55392 4.21376-14.2592 6.4512-0.93184 0.44544-1.86368 0.87552-2.7904 1.32608a399.90784 399.90784 0 0 0-16.29696 8.35072l-0.36352 0.19456a408.28416 408.28416 0 0 0-82.43712 58.88c-0.84992 0.78336-1.52576 1.68448-2.2528 2.54464-3.07712 2.8928-6.18496 5.76-9.17504 8.74496-73.80992 73.8048-119.424 175.75424-119.424 288.31744 0 4.70528 0.11776 10.66496 0.45568 17.75616 0.2816 6.97344 0.68096 12.76416 1.0752 17.41824a27.71968 27.71968 0 0 0 29.89568 25.41056 27.8016 27.8016 0 0 0 25.41568-29.95712 318.70976 318.70976 0 0 1-1.08032-15.2576 359.80288 359.80288 0 0 1-0.2816-15.37536c0-97.23904 39.42912-185.34912 103.19872-249.05728a354.2784 354.2784 0 0 1 22.04672-20.16768c1.4592-1.2288 2.89792-2.47296 4.37248-3.67616a350.2848 350.2848 0 0 1 19.15904-14.5152c2.85696-2.0224 5.70368-4.04992 8.61696-5.98528a358.71232 358.71232 0 0 1 29.2352-17.47968 344.22784 344.22784 0 0 1 12.39552-6.3488 358.1184 358.1184 0 0 1 18.2016-8.14592 341.07392 341.07392 0 0 1 31.76448-11.44832 347.14112 347.14112 0 0 1 11.07456-3.14368 350.4896 350.4896 0 0 1 22.3488-5.3248c2.78016-0.55808 5.60128-1.00864 8.40704-1.50016 8.58624-1.49504 17.23904-2.816 26.0352-3.68128 0.24064-0.0256 0.48128-0.03072 0.72192-0.05632 8.3968 0.72704 16.83968 1.28512 25.42592 1.28512 10.98752 0 21.79584-0.73216 32.46592-1.92 2.38592 0.1536 4.81792 0.13312 7.18848 0.33792 1.55136 0.13312 3.1232 0.19968 4.66944 0.35328 8.79616 0.86528 17.44896 2.18624 26.0352 3.68128 2.80576 0.49664 5.62176 0.94208 8.40192 1.50016 7.55712 1.5104 14.98624 3.34336 22.35392 5.3248 3.70688 1.00352 7.41376 2.0224 11.06944 3.14368 6.49728 1.97632 12.89216 4.16768 19.22048 6.5024 4.21888 1.56672 8.3968 3.2256 12.53888 4.94592a352.03072 352.03072 0 0 1 18.21184 8.14592c4.18304 2.02752 8.30464 4.16256 12.39552 6.3488 4.77696 2.54976 9.472 5.21728 14.11072 7.97696a356.5056 356.5056 0 0 1 15.11424 9.4976c2.93376 1.9456 5.79584 3.98848 8.66816 6.02112a353.07008 353.07008 0 0 1 19.10784 14.47936c1.48992 1.21344 2.944 2.47296 4.41344 3.712a353.3312 353.3312 0 0 1 22.016 20.14208c63.7696 63.70816 103.19872 151.81312 103.19872 249.05728 0 6.41024-0.11264 11.52-0.2816 15.37536-0.16896 3.968-0.512 9.07264-1.08032 15.2576-1.24928 15.26272 10.10176 28.65152 25.41568 29.95712a27.7248 27.7248 0 0 0 29.89568-25.41056c0.39424-4.65408 0.79872-10.4448 1.0752-17.41824a376.3712 376.3712 0 0 0 0.45568-17.75616c0.02048-112.56832-45.5936-214.51776-119.40352-288.32768zM270.03904 307.03104c0-64.95744 26.38336-123.79136 68.93056-166.33856 42.5472-42.55232 101.38112-68.87936 166.33856-68.87936 64.95744 0 123.73504 26.32704 166.28224 68.87936 42.60352 42.5472 68.93056 101.38112 68.93056 166.33856 0 64.95744-26.32704 123.73504-68.93056 166.33856-35.53792 35.54304-82.47808 59.51488-134.8096 66.52928l-0.09728-0.00512c-0.5632-0.03072-1.11616-0.09216-1.67936-0.11776a408.1408 408.1408 0 0 0-20.39296-0.52736l-0.21504 0.00512-0.21504-0.00512c-6.84032 0-13.63456 0.18944-20.39296 0.52736-0.5632 0.03072-1.11616 0.08704-1.67936 0.11776a402.9952 402.9952 0 0 0-12.49792 0.89088 234.496 234.496 0 0 1-140.6464-67.40992c-42.54208-42.60864-68.92544-101.38112-68.92544-166.34368z" fill="#272536" p-id="2294"></path></svg>